<svg width="128" height="128" viewBox="0 0 128 128" fill="none" xmlns="http://www.w3.org/2000/svg">
<path fill-rule="evenodd" clip-rule="evenodd" d="M75.0702 19.6267V12.8H52.9297V19.6267H60.5867V25.9869C60.449 25.9994 60.3115 26.0127 60.1742 26.0267C52.6608 26.7927 45.8075 29.7906 40.2707 34.3495C40.0708 34.514 39.8727 34.6806 39.6763 34.8492L35.1981 30.371L40.6973 24.8719L35.8701 20.0447L20.0447 35.8701L24.8718 40.6973L30.371 35.1982L34.8491 39.6764C34.6805 39.8727 34.514 40.0709 34.3494 40.2707C29.7906 45.8075 26.7927 52.6609 26.0267 60.1742C26.0127 60.3115 25.9994 60.449 25.9869 60.5867H19.6267L19.6267 52.9298H12.8V75.0703H19.6267L19.6267 67.4134H25.9869C25.9994 67.551 26.0127 67.6885 26.0267 67.8258C26.7927 75.3394 29.7908 82.193 34.3499 87.7299C34.5143 87.9295 34.6807 88.1275 34.8491 88.3236L30.3709 92.8019L24.8718 87.3027L20.0446 92.1299L35.87 107.955L40.6972 103.128L35.1981 97.629L39.6763 93.1508C39.8725 93.3193 40.0704 93.4857 40.2701 93.6501C45.807 98.2092 52.6606 101.207 60.1741 101.973C60.3114 101.987 60.4489 102.001 60.5866 102.013V108.373H52.9297V115.2H75.0702V108.373H67.4133V102.013C67.551 102.001 67.6885 101.987 67.8257 101.973C75.3391 101.207 82.1925 98.2094 87.7293 93.6506C87.9291 93.486 88.1273 93.3194 88.3237 93.1509L92.8018 97.629L87.3027 103.128L92.1299 107.955L107.955 92.1299L103.128 87.3027L97.629 92.8018L93.1508 88.3237C93.3194 88.1273 93.486 87.9291 93.6506 87.7293C98.2094 82.1925 101.207 75.3391 101.973 67.8258C101.987 67.6885 102.001 67.551 102.013 67.4134H108.373V75.0703H115.2V52.9298L108.373 52.9297V60.5867H102.013C102.001 60.449 101.987 60.3115 101.973 60.1742C101.207 52.6606 98.2091 45.807 93.6501 40.2701C93.4857 40.0705 93.3193 39.8726 93.1509 39.6764L97.6291 35.1982L103.128 40.6973L107.955 35.8701L92.13 20.0447L87.3028 24.8719L92.8019 30.371L88.3237 34.8492C88.1275 34.6808 87.9295 34.5143 87.7298 34.3499C82.1929 29.7908 75.3394 26.7928 67.8258 26.0267C67.6885 26.0127 67.551 25.9994 67.4133 25.9869V19.6267H75.0702ZM62.9816 33.3076C54.9107 33.6439 47.6472 37.0287 42.3235 42.3225C39.9972 44.6617 38.0395 47.3755 36.5471 50.3677C34.5006 54.4707 33.329 59.0974 33.2815 63.9999C33.2862 64.4894 33.3022 64.9762 33.3291 65.46C33.4358 67.3783 33.7148 69.2494 34.1506 71.058C35.5085 76.6928 38.3888 81.721 42.3235 85.6776C43.4905 86.838 44.7506 87.9066 46.092 88.8716C51.1266 92.4931 57.3059 94.6536 63.9996 94.7185C64.3882 94.7148 64.775 94.7039 65.1599 94.6862C67.479 94.5792 69.7306 94.2205 71.8879 93.6372C77.1863 92.2046 81.9158 89.4172 85.677 85.677C91.1929 80.1301 94.6365 72.4774 94.7185 63.9997C94.6641 58.3925 93.1392 53.1463 90.5169 48.6315C90.2218 48.1234 89.9127 47.6246 89.5904 47.1356C88.4463 45.4002 87.1339 43.7881 85.6769 42.3229C80.4357 37.111 73.3142 33.7493 65.3932 33.3255C64.9314 33.3008 64.467 33.286 64 33.2815C63.6592 33.2848 63.3197 33.2936 62.9816 33.3076ZM41.6649 54.5418C38.5593 56.4788 36.9032 60.2344 37.7659 63.9565C37.7726 63.9855 37.7795 64.0145 37.7865 64.0435C37.8033 64.1129 37.821 64.1822 37.8396 64.2515C38.2489 65.7793 39.0375 67.1042 40.0769 68.1521C41.6133 69.7012 43.6979 70.645 45.9158 70.744C46.7912 70.7831 47.6873 70.6906 48.5787 70.4517C51.4472 69.6831 53.6006 67.5778 54.5481 64.9855C54.7673 64.3858 54.922 63.7601 55.0061 63.1188C55.1512 62.0117 55.086 60.8582 54.779 59.7126C54.4927 58.6443 54.0211 57.6752 53.4079 56.8306C52.561 55.664 51.444 54.735 50.1727 54.1104C48.3345 53.2072 46.1736 52.9406 44.0398 53.5123C43.1794 53.7428 42.3834 54.0936 41.6649 54.5418ZM56.5642 50.8027C56.3903 52.4581 56.5115 54.1728 56.968 55.8767C57.2473 56.9191 57.6374 57.9022 58.1221 58.8168C58.7555 60.0118 59.5505 61.0898 60.4714 62.0301C60.7841 62.3494 61.1113 62.6529 61.4516 62.9396C64.4187 65.4397 68.3823 66.6719 72.4133 66.0997C72.9696 66.0208 73.5271 65.9075 74.0835 65.7584C80.8032 63.9578 85.0604 57.5546 84.3722 50.8495C84.2968 50.1157 84.1623 49.3782 83.9652 48.6428C83.6529 47.4773 83.2022 46.3859 82.6354 45.3816C82.6313 45.3743 82.6272 45.367 82.6231 45.3598C79.5595 39.9537 73.1308 37.0781 66.8497 38.7612C65.975 38.9955 65.1421 39.3079 64.3563 39.6887C59.9755 41.8121 57.0618 46.0647 56.5642 50.8027ZM69.9044 72.6321C67.5648 69.7137 63.8539 68.0882 60.018 68.4753C59.5075 68.5269 58.9948 68.614 58.4829 68.7385C58.3969 68.7594 58.3109 68.7814 58.2249 68.8044C54.2575 69.8675 51.3578 72.9264 50.3167 76.6116C49.7851 78.4932 49.738 80.5381 50.2809 82.564C50.4575 83.2231 50.6892 83.8528 50.9697 84.4494C53.2283 89.2526 58.6508 91.9102 63.9591 90.5295C63.9862 90.5225 64.0133 90.5153 64.0404 90.5081C65.9312 90.0014 67.5795 89.0415 68.8997 87.7765C71.764 85.0318 73.0838 80.851 71.9845 76.7485C71.5689 75.1974 70.8482 73.8096 69.9044 72.6321ZM72.4271 59.5764C76.468 58.4937 78.866 54.3401 77.7833 50.2993C76.7005 46.2584 72.547 43.8603 68.5061 44.9431C64.4652 46.0258 62.0672 50.1794 63.1499 54.2203C64.2327 58.2611 68.3862 60.6592 72.4271 59.5764ZM62.384 84.3261C64.9631 83.6351 66.4937 80.9841 65.8026 78.4049C65.1115 75.8258 62.4605 74.2953 59.8814 74.9863C57.3023 75.6774 55.7717 78.3284 56.4628 80.9075C57.1539 83.4866 59.8049 85.0172 62.384 84.3261ZM44.0215 62.595C44.36 63.8585 45.6588 64.6084 46.9223 64.2698C48.1858 63.9312 48.9356 62.6325 48.5971 61.369C48.2585 60.1055 46.9598 59.3557 45.6963 59.6942C44.4327 60.0328 43.6829 61.3315 44.0215 62.595Z" fill="white"/>
</svg>
